<svg width="256" height="182" viewBox="0 0 256 182" fill="none" xmlns="http://www.w3.org/2000/svg">
<path d="M7.104 125V81.16H28.992L28.544 84.36H10.944V101.448H26.112V104.648H10.944V125H7.104ZM54.584 117.576C54.584 119.325 54.7973 120.584 55.224 121.352C55.6933 122.12 56.4187 122.696 57.4 123.08L56.568 125.704C55.032 125.405 53.8373 124.829 52.984 123.976C52.1733 123.123 51.64 121.821 51.384 120.072C49.08 123.827 45.6027 125.704 40.952 125.704C37.752 125.704 35.2133 124.808 33.336 123.016C31.5013 121.181 30.584 118.749 30.584 115.72C30.584 112.264 31.8 109.597 34.232 107.72C36.7067 105.843 40.12 104.904 44.472 104.904H50.872V101.64C50.872 98.952 50.2747 97.0107 49.08 95.816C47.8853 94.5787 45.9013 93.96 43.128 93.96C40.568 93.96 37.5387 94.6 34.04 95.88L33.08 93.064C36.8347 91.5707 40.3547 90.824 43.64 90.824C50.936 90.824 54.584 94.3653 54.584 101.448V117.576ZM41.592 122.696C45.6027 122.696 48.696 120.733 50.872 116.808V107.592H45.048C41.6347 107.592 39.032 108.253 37.24 109.576C35.448 110.899 34.552 112.883 34.552 115.528C34.552 117.832 35.1707 119.603 36.408 120.84C37.6453 122.077 39.3733 122.696 41.592 122.696ZM73.0395 125.704C71.2048 125.704 69.7542 125.171 68.6875 124.104C67.6635 123.037 67.1515 121.459 67.1515 119.368V77.896L70.8635 77.448V119.24C70.8635 121.416 71.7595 122.504 73.5515 122.504C74.4475 122.504 75.2155 122.355 75.8555 122.056L76.8795 124.808C75.6848 125.405 74.4048 125.704 73.0395 125.704ZM106.147 117.576C106.147 119.325 106.36 120.584 106.787 121.352C107.256 122.12 107.981 122.696 108.963 123.08L108.131 125.704C106.595 125.405 105.4 124.829 104.547 123.976C103.736 123.123 103.203 121.821 102.947 120.072C100.643 123.827 97.1652 125.704 92.5145 125.704C89.3145 125.704 86.7758 124.808 84.8985 123.016C83.0638 121.181 82.1465 118.749 82.1465 115.72C82.1465 112.264 83.3625 109.597 85.7945 107.72C88.2692 105.843 91.6825 104.904 96.0345 104.904H102.435V101.64C102.435 98.952 101.837 97.0107 100.643 95.816C99.4478 94.5787 97.4638 93.96 94.6905 93.96C92.1305 93.96 89.1012 94.6 85.6025 95.88L84.6425 93.064C88.3972 91.5707 91.9172 90.824 95.2025 90.824C102.499 90.824 106.147 94.3653 106.147 101.448V117.576ZM93.1545 122.696C97.1652 122.696 100.259 120.733 102.435 116.808V107.592H96.6105C93.1972 107.592 90.5945 108.253 88.8025 109.576C87.0105 110.899 86.1145 112.883 86.1145 115.528C86.1145 117.832 86.7332 119.603 87.9705 120.84C89.2078 122.077 90.9358 122.696 93.1545 122.696ZM48.192 177H37.888L37.12 159.656C36.9067 155.517 36.8 151.827 36.8 148.584C36.8 146.109 36.864 143.763 36.992 141.544L30.144 172.328H20.224L12.928 141.544C13.184 145.256 13.312 148.755 13.312 152.04C13.312 154.515 13.248 157.096 13.12 159.784L12.352 177H2.112L5.44 132.648H18.688L25.344 162.728L31.552 132.648H44.864L48.192 177ZM83.9125 159.336C83.9125 160.744 83.8485 161.96 83.7205 162.984H62.6645C63.0058 165.843 63.8165 167.848 65.0965 169C66.3765 170.152 68.1472 170.728 70.4085 170.728C71.7738 170.728 73.0965 170.493 74.3765 170.024C75.6565 169.512 77.0432 168.744 78.5365 167.72L82.6965 173.352C78.7285 176.509 74.3125 178.088 69.4485 178.088C63.9445 178.088 59.7205 176.467 56.7765 173.224C53.8325 169.981 52.3605 165.629 52.3605 160.168C52.3605 156.712 52.9792 153.619 54.2165 150.888C55.4538 148.115 57.2672 145.939 59.6565 144.36C62.0458 142.739 64.9045 141.928 68.2325 141.928C73.1392 141.928 76.9792 143.464 79.7525 146.536C82.5258 149.608 83.9125 153.875 83.9125 159.336ZM73.9925 156.456C73.9072 151.251 72.0725 148.648 68.4885 148.648C66.7392 148.648 65.3738 149.288 64.3925 150.568C63.4538 151.848 62.8778 153.96 62.6645 156.904H73.9925V156.456ZM127.161 141.928C129.849 141.928 132.004 142.845 133.625 144.68C135.246 146.472 136.057 148.968 136.057 152.168V177H125.945V153.896C125.945 150.867 124.985 149.352 123.065 149.352C121.998 149.352 121.06 149.715 120.249 150.44C119.438 151.165 118.649 152.275 117.881 153.768V177H107.769V153.896C107.769 150.867 106.809 149.352 104.889 149.352C103.865 149.352 102.926 149.736 102.073 150.504C101.262 151.229 100.473 152.317 99.705 153.768V177H89.593V143.016H98.425L99.129 146.984C100.452 145.277 101.902 144.019 103.481 143.208C105.102 142.355 106.937 141.928 108.985 141.928C110.905 141.928 112.548 142.397 113.913 143.336C115.321 144.275 116.345 145.597 116.985 147.304C118.35 145.469 119.844 144.125 121.465 143.272C123.129 142.376 125.028 141.928 127.161 141.928ZM158.376 141.928C163.581 141.928 167.656 143.528 170.6 146.728C173.544 149.885 175.016 154.323 175.016 160.04C175.016 163.667 174.333 166.845 172.968 169.576C171.645 172.264 169.725 174.355 167.208 175.848C164.733 177.341 161.789 178.088 158.376 178.088C153.213 178.088 149.138 176.509 146.152 173.352C143.208 170.152 141.736 165.693 141.736 159.976C141.736 156.349 142.397 153.192 143.72 150.504C145.085 147.773 147.005 145.661 149.48 144.168C151.997 142.675 154.962 141.928 158.376 141.928ZM158.376 149.352C156.328 149.352 154.792 150.227 153.768 151.976C152.744 153.683 152.232 156.349 152.232 159.976C152.232 163.688 152.722 166.397 153.704 168.104C154.728 169.811 156.285 170.664 158.376 170.664C160.424 170.664 161.96 169.811 162.984 168.104C164.008 166.355 164.52 163.667 164.52 160.04C164.52 156.328 164.008 153.619 162.984 151.912C162.002 150.205 160.466 149.352 158.376 149.352Z" fill="#1D3557"/>
<path d="M207.721 109.943C205.904 110.707 203.736 110.442 201.374 109.333L201.309 109.296C200.668 108.926 200.093 108.611 199.557 108.33L199.454 108.272C195.753 105.931 191.702 101.751 187.819 96.2792L201.275 87.575C205.651 85.5535 204.501 76.1098 201.161 68.1629C197.812 60.1965 191.851 52.7501 187.341 54.5083L187.34 54.5067C187.224 54.5439 176.483 57.857 171.887 58.8096C169.494 46.2869 170.756 36.404 175.904 34.2405C183.507 31.0452 197.215 45.6798 205.838 66.1963C214.462 86.7144 215.324 106.748 207.721 109.943ZM187.241 74.0125C189.797 80.0963 193.879 85.8749 197.673 87.4862L186.665 94.6049C183.447 89.8177 180.386 84.1731 177.786 77.9876C175.306 72.0879 173.472 66.2302 172.292 60.7988C175.469 60.14 181.237 58.4657 184.819 57.3952C183.47 61.2831 184.742 68.066 187.241 74.0125ZM200.368 85.7618C197.964 86.7709 192.75 81.8723 189.116 73.2246C185.483 64.5769 185.63 57.4259 188.034 56.4152C190.44 55.4044 195.652 60.3031 199.286 68.9508C202.921 77.5985 202.774 84.7495 200.368 85.7618ZM162.864 101.367L162.856 101.334L161.997 101.401C161.497 101.439 161.003 101.489 160.505 101.541C159.122 101.685 157.757 101.861 156.453 102.063C154.401 102.371 152.31 102.755 150.237 103.206L150.242 103.233C150.242 103.233 150.24 103.233 150.238 103.233C147.527 103.829 144.857 104.536 142.299 105.337C141.573 105.565 140.843 105.81 140.118 106.056C132.589 97.9245 131.47 87.7897 131.307 85.137C140.41 81.1021 159.584 70.3555 168.661 48.6829C168.814 57.0239 171.241 67.664 175.91 78.7755C180.612 89.9614 186.562 99.1871 192.452 105.129C183.546 101.801 173.629 100.537 162.864 101.367ZM159.908 108.408L158.034 103.948C158.915 103.827 159.81 103.713 160.72 103.619C160.898 103.601 161.074 103.582 161.251 103.564C161.542 105.473 161.02 107.287 159.908 108.408ZM160.215 129.945C158.71 130.578 157.053 130.586 155.549 129.969C154.044 129.359 152.868 128.196 152.236 126.693L143.945 106.965C146.129 106.311 148.385 105.721 150.671 105.219L150.677 105.247C152.46 104.861 154.254 104.531 156.027 104.25L163.475 121.97C164.774 125.066 163.313 128.642 160.215 129.945ZM135.292 107.888C135.181 107.935 135.076 107.975 134.969 108.016C127.7 100.309 126.431 89.8516 126.223 87.1617C126.309 87.1229 126.393 87.0826 126.485 87.0438C126.719 86.9695 127.762 86.6208 129.386 85.9572C129.677 89.5238 131.107 98.8174 138.105 106.766C136.329 107.426 135.324 107.872 135.292 107.888ZM120.7 101.745C119.526 98.9497 119.487 95.882 120.593 93.105C121.368 91.1545 122.674 89.4883 124.342 88.2741C124.73 92.0296 126.328 101.192 132.823 108.582C127.855 109.383 122.744 106.608 120.7 101.745ZM175.116 32.3676C172.549 33.4461 170.755 35.91 169.717 39.3958L169.633 39.3748C162.758 66.6984 139.553 79.3632 129.893 83.5402C127.406 84.6235 125.844 85.116 125.827 85.1208L125.739 85.1531C125.362 85.3114 125.028 85.4712 124.728 85.6343C121.993 87.068 119.853 89.456 118.704 92.3558C117.399 95.6302 117.443 99.2452 118.825 102.533C121.492 108.879 128.611 112.223 135.016 110.152C135.355 110.048 135.683 109.906 136.103 109.751C136.116 109.742 137.614 109.076 140.189 108.172C140.804 107.958 141.432 107.757 142.059 107.555L150.422 127.455C151.259 129.444 152.817 130.983 154.804 131.789C156.794 132.604 158.985 132.593 160.975 131.756C165.075 130.034 167.009 125.301 165.288 121.208L160.764 110.442C162.766 108.939 163.743 106.241 163.334 103.37C176.461 102.408 188.26 104.64 198.417 110.023L198.574 110.111C198.589 110.119 198.605 110.129 198.619 110.136C199.15 110.458 199.675 110.748 200.197 111.003C200.229 111.022 200.261 111.038 200.294 111.058L200.297 111.051C203.292 112.499 206.098 112.83 208.507 111.816C217.424 108.069 217.076 87.6848 207.714 65.4084C198.351 43.1336 184.033 28.6201 175.116 32.3676Z" fill="#E63946"/>
<path d="M238.603 53.3265L218.199 61.9015C217.681 62.1195 217.085 61.8773 216.867 61.359C216.651 60.8423 216.895 60.2466 217.413 60.0286L237.815 51.4535C238.332 51.2356 238.929 51.4794 239.145 51.996C239.363 52.5143 239.12 53.1085 238.603 53.3265Z" fill="#E63946"/>
<path d="M207.343 45.817C206.972 45.972 206.528 45.8994 206.227 45.5958C205.83 45.1987 205.833 44.5544 206.232 44.1589L221.94 28.5749C222.339 28.1777 222.983 28.1809 223.379 28.5781C223.775 28.9769 223.771 29.6195 223.374 30.0151L207.664 45.6007C207.569 45.6959 207.459 45.767 207.343 45.817Z" fill="#E63946"/>
<path d="M244.357 80.5693C244.241 80.6178 244.113 80.6468 243.979 80.6484L221.853 80.9649C221.29 80.973 220.83 80.5241 220.822 79.9639C220.813 79.402 221.262 78.9418 221.826 78.9321L243.95 78.6173C244.512 78.6092 244.974 79.0565 244.981 79.6183C244.987 80.0446 244.729 80.4127 244.357 80.5693Z" fill="#E63946"/>
</svg>
